<svg width="276" height="176" viewBox="0 0 276 176" fill="none" xmlns="http://www.w3.org/2000/svg">
<path d="M102.507 6.39289L96.0622 17.4657L89.6178 6.39289L102.507 6.39289Z" fill="#F8F8F8"/>
<path d="M216.788 35.5042L245.348 42.6675L224.864 63.8197L216.788 35.5042Z" fill="#F8F8F8"/>
<path d="M46.1471 149.415L34.0622 170.347L21.9773 149.415L46.1471 149.415Z" fill="#F8F8F8"/>
<path d="M65.6169 81.2841L13.0669 54.097L62.8866 22.181L65.6169 81.2841Z" fill="#F8F8F8"/>
<path d="M271.057 128.865L228.85 144.29L236.595 100.025L271.057 128.865Z" fill="#F8F8F8"/>
<path d="M163.961 96.0781C140.199 96.0781 120.922 76.8008 120.922 53.0391C120.922 29.2773 140.199 10 163.961 10C187.723 10 187.723 96.0781 163.961 96.0781Z" fill="#FDE53F"/>
<path d="M163.961 10V96.0781C187.723 96.0781 207 76.8008 207 53.0391C207 29.2773 187.723 10 163.961 10Z" fill="#FED330"/>
<path d="M163.77 92.9062C185.788 92.9062 203.637 75.0571 203.637 53.0391C203.637 31.021 185.788 13.1719 163.77 13.1719C141.751 13.1719 123.902 31.021 123.902 53.0391C123.902 75.0571 141.751 92.9062 163.77 92.9062Z" stroke="#FD9E28" stroke-width="2" stroke-miterlimit="10"/>
<path d="M67 141.879L96.3945 132.062L144.082 149.973L206.945 137.012L206.617 135.644C204.074 125.035 193.629 118.309 182.938 120.359L148.785 126.922L82.1758 100.48L67 105.648V141.879Z" fill="#FFDFCF"/>
<path d="M82.1758 100.48L95.3555 95.832C104.187 92.7148 113.895 93.125 122.426 96.9805L150.207 109.559C154.883 111.664 156.961 117.16 154.855 121.863C152.777 126.512 147.336 128.617 142.66 126.621L82.1758 100.48Z" fill="#FFCEBF"/>
<path d="M152.094 59.793C151.957 62.6367 151.082 64.8242 149.469 66.3281C147.992 67.7227 146.133 68.4063 143.863 68.4063C141.184 68.4063 139.051 67.4219 137.492 65.4531C136.562 64.3047 135.961 62.8555 135.715 61.1055C135.469 59.3555 135.332 56.8125 135.332 53.5039C135.332 50.1953 135.469 47.6797 135.715 45.9023C135.961 44.1523 136.562 42.7031 137.492 41.5547C139.078 39.5859 141.211 38.6016 143.863 38.6016C146.133 38.6016 147.992 39.2852 149.469 40.6797C151.082 42.2109 151.957 44.3711 152.094 47.1875H146.297C146.242 46.1484 146.105 45.4102 145.859 44.9453C145.504 44.207 144.848 43.8516 143.891 43.8516C142.961 43.8516 142.305 44.2344 141.922 45C141.402 46.0117 141.156 48.8555 141.156 53.5039C141.156 58.1523 141.402 60.9961 141.922 62.0078C142.305 62.7734 142.961 63.1563 143.891 63.1563C144.848 63.1563 145.504 62.7734 145.859 62.0078C146.105 61.543 146.242 60.8047 146.297 59.7656H152.094V59.793Z" fill="#FD9E28"/>
<path d="M172.93 68.0781H166.887L163.332 56.7305H161.418V68.0781H155.594V38.957H163.906C166.941 38.957 169.047 39.6953 170.223 41.1719C171.398 42.6484 172 44.8633 172 47.8437C172 49.6484 171.781 51.1523 171.316 52.4102C170.879 53.6406 169.977 54.6797 168.664 55.5L172.93 68.0781ZM166.176 47.8437C166.176 47.1328 166.148 46.5586 166.066 46.0937C165.984 45.6562 165.793 45.2187 165.41 44.8086C165.055 44.3984 164.508 44.207 163.824 44.207H161.363V51.5352H163.824C164.344 51.5352 164.781 51.4258 165.109 51.2344C165.437 51.043 165.684 50.7148 165.82 50.3047C165.957 49.8945 166.039 49.5117 166.094 49.1562C166.148 48.8008 166.176 48.3633 166.176 47.8437Z" fill="#FD9E28"/>
<path d="M190.758 41.3086C191.988 42.8672 192.59 45.1914 192.59 48.2539C192.59 51.3164 191.988 53.6133 190.758 55.1992C189.527 56.7578 187.422 57.5508 184.414 57.5508H182.008V68.1055H176.184V38.957H184.414C187.422 38.957 189.555 39.75 190.758 41.3086ZM186.738 49.7031C186.793 49.3477 186.793 48.8555 186.793 48.2539C186.793 47.6523 186.766 47.1602 186.738 46.8047C186.711 46.4492 186.602 46.0391 186.465 45.5742C186.328 45.1367 186.055 44.7812 185.699 44.5625C185.344 44.3437 184.852 44.207 184.277 44.207H182.035V52.3008H184.277C184.852 52.3008 185.316 52.1914 185.699 51.9453C186.055 51.7266 186.328 51.3711 186.465 50.9336C186.602 50.4687 186.711 50.0586 186.738 49.7031Z" fill="#FD9E28"/>
</svg>
